<mxfile host="app.diagrams.net" agent="Mozilla/5.0 (Windows NT 10.0; Win64; x64) AppleWebKit/537.36 (KHTML, like Gecko) Chrome/132.0.0.0 Safari/537.36" version="26.0.10">
  <diagram name="Page-1" id="QdkUgTtmEQ5uxZNaRSvz">
    <mxGraphModel dx="794" dy="454" grid="1" gridSize="10" guides="1" tooltips="1" connect="1" arrows="1" fold="1" page="1" pageScale="1" pageWidth="850" pageHeight="1100" math="0" shadow="0">
      <root>
        <mxCell id="0" />
        <mxCell id="1" parent="0" />
        <mxCell id="VBooBfW7-zvuTEhqTYR6-20" style="edgeStyle=orthogonalEdgeStyle;rounded=0;orthogonalLoop=1;jettySize=auto;html=1;exitX=1;exitY=0.5;exitDx=0;exitDy=0;exitPerimeter=0;" edge="1" parent="1" source="VBooBfW7-zvuTEhqTYR6-6">
          <mxGeometry relative="1" as="geometry">
            <mxPoint x="580" y="160" as="targetPoint" />
          </mxGeometry>
        </mxCell>
        <mxCell id="VBooBfW7-zvuTEhqTYR6-6" value="" style="verticalLabelPosition=bottom;shadow=0;dashed=0;align=center;html=1;verticalAlign=top;shape=mxgraph.electrical.logic_gates.logic_gate;operation=xor;" vertex="1" parent="1">
          <mxGeometry x="470" y="130" width="100" height="60" as="geometry" />
        </mxCell>
        <mxCell id="VBooBfW7-zvuTEhqTYR6-23" style="edgeStyle=orthogonalEdgeStyle;rounded=0;orthogonalLoop=1;jettySize=auto;html=1;exitX=0;exitY=0.25;exitDx=0;exitDy=0;exitPerimeter=0;entryX=0;entryY=0.25;entryDx=0;entryDy=0;entryPerimeter=0;" edge="1" parent="1" target="VBooBfW7-zvuTEhqTYR6-7">
          <mxGeometry relative="1" as="geometry">
            <mxPoint x="140" y="195" as="sourcePoint" />
          </mxGeometry>
        </mxCell>
        <mxCell id="VBooBfW7-zvuTEhqTYR6-24" style="edgeStyle=orthogonalEdgeStyle;rounded=0;orthogonalLoop=1;jettySize=auto;html=1;exitX=0;exitY=0.75;exitDx=0;exitDy=0;exitPerimeter=0;entryX=0;entryY=0.75;entryDx=0;entryDy=0;entryPerimeter=0;" edge="1" parent="1" target="VBooBfW7-zvuTEhqTYR6-7">
          <mxGeometry relative="1" as="geometry">
            <mxPoint x="140" y="225" as="sourcePoint" />
          </mxGeometry>
        </mxCell>
        <mxCell id="VBooBfW7-zvuTEhqTYR6-7" value="" style="verticalLabelPosition=bottom;shadow=0;dashed=0;align=center;html=1;verticalAlign=top;shape=mxgraph.electrical.logic_gates.logic_gate;operation=or;" vertex="1" parent="1">
          <mxGeometry x="170" y="180" width="100" height="60" as="geometry" />
        </mxCell>
        <mxCell id="VBooBfW7-zvuTEhqTYR6-16" style="edgeStyle=orthogonalEdgeStyle;rounded=0;orthogonalLoop=1;jettySize=auto;html=1;exitX=0;exitY=0.25;exitDx=0;exitDy=0;exitPerimeter=0;entryX=0;entryY=0.25;entryDx=0;entryDy=0;entryPerimeter=0;" edge="1" parent="1" target="VBooBfW7-zvuTEhqTYR6-8">
          <mxGeometry relative="1" as="geometry">
            <mxPoint x="370" y="210" as="sourcePoint" />
            <Array as="points">
              <mxPoint x="370" y="211" />
              <mxPoint x="421" y="211" />
              <mxPoint x="421" y="245" />
            </Array>
          </mxGeometry>
        </mxCell>
        <mxCell id="VBooBfW7-zvuTEhqTYR6-21" style="edgeStyle=orthogonalEdgeStyle;rounded=0;orthogonalLoop=1;jettySize=auto;html=1;exitX=1;exitY=0.5;exitDx=0;exitDy=0;exitPerimeter=0;" edge="1" parent="1" source="VBooBfW7-zvuTEhqTYR6-8">
          <mxGeometry relative="1" as="geometry">
            <mxPoint x="580" y="260" as="targetPoint" />
          </mxGeometry>
        </mxCell>
        <mxCell id="VBooBfW7-zvuTEhqTYR6-8" value="" style="verticalLabelPosition=bottom;shadow=0;dashed=0;align=center;html=1;verticalAlign=top;shape=mxgraph.electrical.logic_gates.logic_gate;operation=and;" vertex="1" parent="1">
          <mxGeometry x="470" y="230" width="100" height="60" as="geometry" />
        </mxCell>
        <mxCell id="VBooBfW7-zvuTEhqTYR6-25" style="edgeStyle=orthogonalEdgeStyle;rounded=0;orthogonalLoop=1;jettySize=auto;html=1;exitX=0;exitY=0.25;exitDx=0;exitDy=0;exitPerimeter=0;entryX=0;entryY=0.25;entryDx=0;entryDy=0;entryPerimeter=0;" edge="1" parent="1" target="VBooBfW7-zvuTEhqTYR6-9">
          <mxGeometry relative="1" as="geometry">
            <mxPoint x="140" y="295" as="sourcePoint" />
          </mxGeometry>
        </mxCell>
        <mxCell id="VBooBfW7-zvuTEhqTYR6-26" style="edgeStyle=orthogonalEdgeStyle;rounded=0;orthogonalLoop=1;jettySize=auto;html=1;exitX=0;exitY=0.75;exitDx=0;exitDy=0;exitPerimeter=0;entryX=0;entryY=0.75;entryDx=0;entryDy=0;entryPerimeter=0;" edge="1" parent="1" target="VBooBfW7-zvuTEhqTYR6-9">
          <mxGeometry relative="1" as="geometry">
            <mxPoint x="140" y="325" as="sourcePoint" />
          </mxGeometry>
        </mxCell>
        <mxCell id="VBooBfW7-zvuTEhqTYR6-9" value="" style="verticalLabelPosition=bottom;shadow=0;dashed=0;align=center;html=1;verticalAlign=top;shape=mxgraph.electrical.logic_gates.logic_gate;operation=and;negating=1;negSize=0.15;" vertex="1" parent="1">
          <mxGeometry x="170" y="280" width="100" height="60" as="geometry" />
        </mxCell>
        <mxCell id="VBooBfW7-zvuTEhqTYR6-22" style="edgeStyle=orthogonalEdgeStyle;rounded=0;orthogonalLoop=1;jettySize=auto;html=1;" edge="1" parent="1" target="VBooBfW7-zvuTEhqTYR6-10">
          <mxGeometry relative="1" as="geometry">
            <mxPoint x="140" y="120" as="sourcePoint" />
            <Array as="points">
              <mxPoint x="140" y="121" />
              <mxPoint x="161" y="121" />
              <mxPoint x="161" y="120" />
            </Array>
          </mxGeometry>
        </mxCell>
        <mxCell id="VBooBfW7-zvuTEhqTYR6-10" value="" style="verticalLabelPosition=bottom;shadow=0;dashed=0;align=center;html=1;verticalAlign=top;shape=mxgraph.electrical.logic_gates.inverter_2" vertex="1" parent="1">
          <mxGeometry x="170" y="90" width="100" height="60" as="geometry" />
        </mxCell>
        <mxCell id="VBooBfW7-zvuTEhqTYR6-27" style="edgeStyle=orthogonalEdgeStyle;rounded=0;orthogonalLoop=1;jettySize=auto;html=1;exitX=0;exitY=0.25;exitDx=0;exitDy=0;exitPerimeter=0;entryX=0;entryY=0.25;entryDx=0;entryDy=0;entryPerimeter=0;" edge="1" parent="1" target="VBooBfW7-zvuTEhqTYR6-11">
          <mxGeometry relative="1" as="geometry">
            <mxPoint x="140" y="385" as="sourcePoint" />
          </mxGeometry>
        </mxCell>
        <mxCell id="VBooBfW7-zvuTEhqTYR6-28" style="edgeStyle=orthogonalEdgeStyle;rounded=0;orthogonalLoop=1;jettySize=auto;html=1;exitX=0;exitY=0.75;exitDx=0;exitDy=0;exitPerimeter=0;entryX=0;entryY=0.75;entryDx=0;entryDy=0;entryPerimeter=0;" edge="1" parent="1" target="VBooBfW7-zvuTEhqTYR6-11">
          <mxGeometry relative="1" as="geometry">
            <mxPoint x="140" y="415" as="sourcePoint" />
          </mxGeometry>
        </mxCell>
        <mxCell id="VBooBfW7-zvuTEhqTYR6-11" value="" style="verticalLabelPosition=bottom;shadow=0;dashed=0;align=center;html=1;verticalAlign=top;shape=mxgraph.electrical.logic_gates.logic_gate;operation=or;" vertex="1" parent="1">
          <mxGeometry x="170" y="370" width="100" height="60" as="geometry" />
        </mxCell>
        <mxCell id="VBooBfW7-zvuTEhqTYR6-12" value="" style="verticalLabelPosition=bottom;shadow=0;dashed=0;align=center;html=1;verticalAlign=top;shape=mxgraph.electrical.logic_gates.logic_gate;operation=xor;" vertex="1" parent="1">
          <mxGeometry x="330" y="320" width="100" height="60" as="geometry" />
        </mxCell>
        <mxCell id="VBooBfW7-zvuTEhqTYR6-14" style="edgeStyle=orthogonalEdgeStyle;rounded=0;orthogonalLoop=1;jettySize=auto;html=1;exitX=1;exitY=0.5;exitDx=0;exitDy=0;exitPerimeter=0;entryX=0;entryY=0.25;entryDx=0;entryDy=0;entryPerimeter=0;" edge="1" parent="1" source="VBooBfW7-zvuTEhqTYR6-10" target="VBooBfW7-zvuTEhqTYR6-6">
          <mxGeometry relative="1" as="geometry" />
        </mxCell>
        <mxCell id="VBooBfW7-zvuTEhqTYR6-15" style="edgeStyle=orthogonalEdgeStyle;rounded=0;orthogonalLoop=1;jettySize=auto;html=1;exitX=1;exitY=0.5;exitDx=0;exitDy=0;exitPerimeter=0;entryX=0;entryY=0.75;entryDx=0;entryDy=0;entryPerimeter=0;" edge="1" parent="1" source="VBooBfW7-zvuTEhqTYR6-7" target="VBooBfW7-zvuTEhqTYR6-6">
          <mxGeometry relative="1" as="geometry" />
        </mxCell>
        <mxCell id="VBooBfW7-zvuTEhqTYR6-17" style="edgeStyle=orthogonalEdgeStyle;rounded=0;orthogonalLoop=1;jettySize=auto;html=1;exitX=1;exitY=0.5;exitDx=0;exitDy=0;exitPerimeter=0;entryX=0;entryY=0.75;entryDx=0;entryDy=0;entryPerimeter=0;" edge="1" parent="1" source="VBooBfW7-zvuTEhqTYR6-12" target="VBooBfW7-zvuTEhqTYR6-8">
          <mxGeometry relative="1" as="geometry" />
        </mxCell>
        <mxCell id="VBooBfW7-zvuTEhqTYR6-18" style="edgeStyle=orthogonalEdgeStyle;rounded=0;orthogonalLoop=1;jettySize=auto;html=1;exitX=1;exitY=0.5;exitDx=0;exitDy=0;exitPerimeter=0;entryX=0;entryY=0.25;entryDx=0;entryDy=0;entryPerimeter=0;" edge="1" parent="1" source="VBooBfW7-zvuTEhqTYR6-9" target="VBooBfW7-zvuTEhqTYR6-12">
          <mxGeometry relative="1" as="geometry" />
        </mxCell>
        <mxCell id="VBooBfW7-zvuTEhqTYR6-19" style="edgeStyle=orthogonalEdgeStyle;rounded=0;orthogonalLoop=1;jettySize=auto;html=1;exitX=1;exitY=0.5;exitDx=0;exitDy=0;exitPerimeter=0;entryX=0;entryY=0.75;entryDx=0;entryDy=0;entryPerimeter=0;" edge="1" parent="1" source="VBooBfW7-zvuTEhqTYR6-11" target="VBooBfW7-zvuTEhqTYR6-12">
          <mxGeometry relative="1" as="geometry" />
        </mxCell>
        <mxCell id="VBooBfW7-zvuTEhqTYR6-33" value="c" style="text;html=1;align=center;verticalAlign=middle;resizable=0;points=[];autosize=1;strokeColor=none;fillColor=none;fontSize=23;" vertex="1" parent="1">
          <mxGeometry x="99" y="99" width="40" height="40" as="geometry" />
        </mxCell>
        <mxCell id="VBooBfW7-zvuTEhqTYR6-35" value="a" style="text;html=1;align=center;verticalAlign=middle;resizable=0;points=[];autosize=1;strokeColor=none;fillColor=none;fontSize=20;" vertex="1" parent="1">
          <mxGeometry x="104" y="174" width="30" height="40" as="geometry" />
        </mxCell>
        <mxCell id="VBooBfW7-zvuTEhqTYR6-36" value="b" style="text;html=1;align=center;verticalAlign=middle;resizable=0;points=[];autosize=1;strokeColor=none;fillColor=none;fontSize=20;" vertex="1" parent="1">
          <mxGeometry x="105" y="203" width="30" height="40" as="geometry" />
        </mxCell>
        <mxCell id="VBooBfW7-zvuTEhqTYR6-37" value="a" style="text;html=1;align=center;verticalAlign=middle;resizable=0;points=[];autosize=1;strokeColor=none;fillColor=none;fontSize=20;" vertex="1" parent="1">
          <mxGeometry x="104" y="273" width="30" height="40" as="geometry" />
        </mxCell>
        <mxCell id="VBooBfW7-zvuTEhqTYR6-38" value="b" style="text;html=1;align=center;verticalAlign=middle;resizable=0;points=[];autosize=1;strokeColor=none;fillColor=none;fontSize=20;" vertex="1" parent="1">
          <mxGeometry x="106" y="303" width="30" height="40" as="geometry" />
        </mxCell>
        <mxCell id="VBooBfW7-zvuTEhqTYR6-39" value="a" style="text;html=1;align=center;verticalAlign=middle;resizable=0;points=[];autosize=1;strokeColor=none;fillColor=none;fontSize=20;" vertex="1" parent="1">
          <mxGeometry x="108" y="363" width="30" height="40" as="geometry" />
        </mxCell>
        <mxCell id="VBooBfW7-zvuTEhqTYR6-40" value="b&lt;div&gt;&lt;br&gt;&lt;/div&gt;" style="text;html=1;align=center;verticalAlign=middle;resizable=0;points=[];autosize=1;strokeColor=none;fillColor=none;fontSize=20;" vertex="1" parent="1">
          <mxGeometry x="108" y="397" width="30" height="60" as="geometry" />
        </mxCell>
        <mxCell id="VBooBfW7-zvuTEhqTYR6-41" value="&lt;font style=&quot;font-size: 20px;&quot;&gt;x&lt;/font&gt;" style="text;html=1;align=center;verticalAlign=middle;resizable=0;points=[];autosize=1;strokeColor=none;fillColor=none;" vertex="1" parent="1">
          <mxGeometry x="590" y="139" width="30" height="40" as="geometry" />
        </mxCell>
        <mxCell id="VBooBfW7-zvuTEhqTYR6-45" value="y" style="text;html=1;align=center;verticalAlign=middle;resizable=0;points=[];autosize=1;strokeColor=none;fillColor=none;fontSize=20;" vertex="1" parent="1">
          <mxGeometry x="590" y="240" width="30" height="40" as="geometry" />
        </mxCell>
      </root>
    </mxGraphModel>
  </diagram>
</mxfile>
